<svg width="48" height="49" viewBox="0 0 48 49" fill="none" xmlns="http://www.w3.org/2000/svg">
<path fill-rule="evenodd" clip-rule="evenodd" d="M24 0.821289C10.7452 0.821289 0 11.5665 0 24.8213C0 38.0761 10.7452 48.8213 24 48.8213C37.2548 48.8213 48 38.0761 48 24.8213C48 11.5665 37.2548 0.821289 24 0.821289ZM18.7233 12.0986C20.0886 12.0365 20.5249 12.0213 24.0012 12.0213H23.9972C27.4746 12.0213 27.9092 12.0365 29.2746 12.0986C30.6373 12.161 31.5679 12.3768 32.384 12.6933C33.2266 13.02 33.9386 13.4573 34.6506 14.1693C35.3627 14.8808 35.8 15.5949 36.128 16.4368C36.4427 17.2507 36.6587 18.1808 36.7227 19.5435C36.784 20.9088 36.8 21.3451 36.8 24.8214C36.8 28.2977 36.784 28.7329 36.7227 30.0983C36.6587 31.4604 36.4427 32.3908 36.128 33.205C35.8 34.0466 35.3627 34.7607 34.6506 35.4722C33.9394 36.1842 33.2264 36.6226 32.3848 36.9495C31.5703 37.2661 30.6391 37.4818 29.2765 37.5442C27.9111 37.6064 27.4762 37.6216 23.9996 37.6216C20.5236 37.6216 20.0876 37.6064 18.7222 37.5442C17.3598 37.4818 16.4294 37.2661 15.615 36.9495C14.7736 36.6226 14.0595 36.1842 13.3483 35.4722C12.6365 34.7607 12.1992 34.0466 11.872 33.2047C11.5557 32.3908 11.34 31.4607 11.2773 30.098C11.2155 28.7327 11.2 28.2977 11.2 24.8214C11.2 21.3451 11.216 20.9086 11.2771 19.5432C11.3384 18.1811 11.5544 17.2507 11.8717 16.4365C12.1997 15.5949 12.6371 14.8808 13.3491 14.1693C14.0606 13.4576 14.7747 13.0202 15.6166 12.6933C16.4305 12.3768 17.3606 12.161 18.7233 12.0986Z" fill="red"/>
<path fill-rule="evenodd" clip-rule="evenodd" d="M22.853 14.3284C23.0759 14.328 23.3158 14.3282 23.5746 14.3283L24.0013 14.3284C27.4189 14.3284 27.824 14.3407 29.1736 14.402C30.4216 14.4591 31.0989 14.6676 31.5501 14.8428C32.1475 15.0748 32.5733 15.3521 33.0211 15.8001C33.4691 16.2481 33.7464 16.6748 33.979 17.2722C34.1542 17.7228 34.363 18.4002 34.4198 19.6482C34.4811 20.9975 34.4944 21.4029 34.4944 24.8189C34.4944 28.2349 34.4811 28.6403 34.4198 29.9896C34.3627 31.2376 34.1542 31.915 33.979 32.3657C33.747 32.963 33.4691 33.3883 33.0211 33.8361C32.5731 34.2841 32.1477 34.5614 31.5501 34.7934C31.0995 34.9694 30.4216 35.1774 29.1736 35.2345C27.8242 35.2958 27.4189 35.3091 24.0013 35.3091C20.5834 35.3091 20.1783 35.2958 18.8289 35.2345C17.5809 35.1769 16.9036 34.9683 16.4521 34.7931C15.8548 34.5611 15.4281 34.2838 14.9801 33.8358C14.5321 33.3878 14.2548 32.9622 14.0222 32.3646C13.847 31.9139 13.6382 31.2366 13.5814 29.9886C13.5201 28.6392 13.5078 28.2339 13.5078 24.8157C13.5078 21.3975 13.5201 20.9943 13.5814 19.645C13.6385 18.397 13.847 17.7196 14.0222 17.2684C14.2542 16.6711 14.5321 16.2444 14.9801 15.7964C15.4281 15.3484 15.8548 15.0711 16.4521 14.8385C16.9033 14.6625 17.5809 14.4545 18.8289 14.3972C20.0097 14.3439 20.4674 14.3279 22.853 14.3252V14.3284ZM30.8339 16.4538C29.9859 16.4538 29.2978 17.141 29.2978 17.9892C29.2978 18.8372 29.9859 19.5252 30.8339 19.5252C31.6819 19.5252 32.3699 18.8372 32.3699 17.9892C32.3699 17.1412 31.6819 16.4532 30.8339 16.4532V16.4538ZM17.4279 24.8218C17.4279 21.1918 20.3709 18.2486 24.001 18.2484C27.6312 18.2484 30.5736 21.1917 30.5736 24.8218C30.5736 28.452 27.6314 31.3939 24.0013 31.3939C20.3711 31.3939 17.4279 28.452 17.4279 24.8218Z" fill="red"/>
<path d="M24.0012 20.5547C26.3575 20.5547 28.2679 22.4648 28.2679 24.8214C28.2679 27.1777 26.3575 29.0881 24.0012 29.0881C21.6447 29.0881 19.7345 27.1777 19.7345 24.8214C19.7345 22.4648 21.6447 20.5547 24.0012 20.5547Z" fill="red"/>
</svg>
