<?xml version="1.0" standalone="no"?>
<!DOCTYPE svg PUBLIC "-//W3C//DTD SVG 20010904//EN"
 "http://www.w3.org/TR/2001/REC-SVG-20010904/DTD/svg10.dtd">
<svg version="1.0" xmlns="http://www.w3.org/2000/svg"
 width="225.000000pt" height="225.000000pt" viewBox="0 0 225.000000 225.000000"
 preserveAspectRatio="xMidYMid meet">
<metadata>
Created by potrace 1.16, written by Peter Selinger 2001-2019
</metadata>
<g transform="translate(0.000000,225.000000) scale(0.100000,-0.100000)"
fill="#000000" stroke="none">
<path d="M25 2225 l-25 -24 0 -1076 0 -1076 25 -24 24 -25 1076 0 1076 0 24
25 25 24 0 1076 0 1076 -25 24 -24 25 -1076 0 -1076 0 -24 -25z m627 -688 c26
-15 59 -43 74 -62 47 -62 54 -109 54 -350 0 -264 -8 -303 -75 -370 -61 -62
-113 -75 -292 -75 l-143 0 0 446 0 446 168 -4 c162 -3 169 -4 214 -31z m668
-47 l0 -80 -145 0 -145 0 0 -100 0 -99 88 -3 87 -3 0 -80 0 -80 -87 -3 -88 -3
0 -99 0 -100 145 0 145 0 0 -80 0 -80 -180 0 c-200 0 -227 6 -255 60 -22 43
-22 727 0 770 28 54 52 59 253 60 l182 0 0 -80z m339 -207 c41 -159 77 -291
81 -296 3 -4 35 104 70 240 35 137 69 269 77 296 l14 47 84 0 c57 0 85 -4 85
-11 0 -35 -205 -779 -222 -808 -24 -38 -73 -71 -107 -71 -38 0 -86 36 -110 82
-16 32 -221 777 -221 804 0 2 39 4 88 4 l87 0 74 -287z"/>
<path d="M430 1125 l0 -285 55 0 c66 0 112 21 125 56 13 33 13 425 0 458 -13
35 -59 56 -125 56 l-55 0 0 -285z"/>
</g>
</svg>
