<svg width="96" height="22" viewBox="0 0 96 22" fill="none" xmlns="http://www.w3.org/2000/svg">
<path d="M3.10699 15.9132C2.0678 15.972 1.14407 16.5947 0.699582 17.5358C0.255097 18.477 0.361082 19.5859 0.975799 20.4259C1.59052 21.2658 2.61546 21.7022 3.64699 21.5632L12.527 20.7232C13.6127 20.6494 14.6746 20.3712 15.657 19.9032C16.8304 19.3789 17.6991 18.3463 18.015 17.1006C18.3308 15.8549 18.0589 14.5331 17.277 13.5132C16.6366 12.6344 15.8359 11.8846 14.917 11.3032L7.62699 6.41316L14.317 5.81316C15.8122 5.60081 16.8797 4.25538 16.7466 2.75103C16.6135 1.24668 15.3263 0.109629 13.817 0.163161L5.61699 0.893161C4.53272 0.961136 3.47091 1.23252 2.48699 1.69316C1.32199 2.23034 0.454332 3.25542 0.116995 4.49316C-0.178575 5.74039 0.0922964 7.05448 0.856995 8.08316C1.49777 8.96161 2.29842 9.71137 3.21699 10.2932L10.557 15.2032L3.10699 15.9132Z" fill="#FF006B"/>
<path fill-rule="evenodd" clip-rule="evenodd" d="M65.2269 0.153168H56.5369H56.5069C55.7502 0.15579 55.0258 0.460292 54.4945 0.999109C53.9632 1.53793 53.6689 2.2665 53.6769 3.02317V18.7432C53.7661 20.2436 55.0089 21.4147 56.5119 21.4147C58.015 21.4147 59.2578 20.2436 59.3469 18.7432V16.8932H65.2269C68.2172 16.8932 70.9804 15.2979 72.4755 12.7082C73.9707 10.1185 73.9707 6.92785 72.4755 4.33817C70.9804 1.74848 68.2172 0.153168 65.2269 0.153168ZM65.2269 11.2232H59.3369L59.3469 5.83317H65.2269C66.2289 5.7721 67.1821 6.27199 67.7016 7.13101C68.221 7.99002 68.221 9.06631 67.7016 9.92533C67.1821 10.7843 66.2289 11.2842 65.2269 11.2232Z" fill="#FF006B"/>
<path d="M46.8271 2.20317L42.2871 17.9532C41.9417 18.9462 42.1731 20.0489 42.8888 20.8192C43.6044 21.5896 44.6871 21.9015 45.7029 21.6299C46.7187 21.3584 47.5013 20.5478 47.7371 19.5232L52.2771 3.77317C52.6226 2.78009 52.3911 1.67741 51.6754 0.907094C50.9598 0.136773 49.8771 -0.175119 48.8613 0.0964235C47.8455 0.367966 47.0629 1.1785 46.8271 2.20317Z" fill="#FF006B"/>
<path d="M36.7369 10.1532L33.8769 3.25316C33.4418 2.21358 32.4331 1.52966 31.3063 1.51016C30.1795 1.49065 29.1478 2.13927 28.6769 3.16316L25.5469 10.0232L23.5469 2.34316C23.3179 1.33564 22.5598 0.531984 21.5673 0.24467C20.5748 -0.0426429 19.5046 0.23172 18.7728 0.961083C18.041 1.69045 17.763 2.75972 18.0469 3.75316L22.0469 19.2132C22.349 20.3756 23.3497 21.2224 24.5462 21.3279C25.7426 21.4334 26.8761 20.7748 27.3769 19.6832L31.1269 11.4432L34.5869 19.8232C35.0286 20.9756 36.1641 21.7108 37.3963 21.6423C38.6286 21.5739 39.6756 20.7174 39.9869 19.5232L44.4769 3.77316C44.9105 2.25714 44.0329 0.676704 42.5169 0.24316C41.0009 -0.190383 39.4205 0.687138 38.9869 2.20316L36.7369 10.1532Z" fill="#FF006B"/>
<path fill-rule="evenodd" clip-rule="evenodd" d="M92.7658 14.595C91.812 14.1549 90.6931 14.2773 89.8569 14.9132L89.7169 14.9832C87.6693 16.2279 85.1586 16.2688 83.1071 15.1937L90.3769 12.9632C95.7369 11.3232 96.9069 6.26318 93.0069 2.67317C92.8856 2.55027 92.7552 2.43662 92.6169 2.33317L92.3369 2.11317C92.21 2.01403 92.0763 1.92381 91.9369 1.84317C87.3623 -1.04838 81.4044 -0.441444 77.5069 3.31317C73.4495 7.37716 73.4495 13.9592 77.5069 18.0232L77.7069 18.2232C81.8475 22.1679 88.1511 22.7631 92.9569 19.6632L93.0469 19.6032C93.9456 19.0591 94.4705 18.0634 94.4116 17.0146C94.3528 15.9657 93.7197 15.035 92.7658 14.595ZM80.4569 10.0632L80.1469 10.1632C80.2514 9.08906 80.7208 8.08319 81.4769 7.31318C83.5406 5.39903 86.6496 5.15479 88.9869 6.72318C89.1701 6.86129 89.3377 7.01888 89.4869 7.19318C89.2386 7.33874 88.9733 7.45294 88.6969 7.53317L80.4569 10.0632Z" fill="#FF006B"/>
</svg>
