<svg width="48" height="49" viewBox="0 0 48 49" fill="none" xmlns="http://www.w3.org/2000/svg">
<path fill-rule="evenodd" clip-rule="evenodd" d="M24 0.821289C10.7452 0.821289 0 11.5665 0 24.8213C0 38.0761 10.7452 48.8213 24 48.8213C37.2548 48.8213 48 38.0761 48 24.8213C48 11.5665 37.2548 0.821289 24 0.821289ZM23.3316 21.1592L23.2812 20.3288C23.1301 18.1764 24.4563 16.2104 26.5548 15.4478C27.327 15.1766 28.6364 15.1427 29.4926 15.38C29.8283 15.4816 30.4663 15.8206 30.9195 16.1257L31.7421 16.685L32.6486 16.3968C33.1523 16.2443 33.8238 15.9901 34.1259 15.8206C34.4113 15.6681 34.6631 15.5833 34.6631 15.6342C34.6631 15.9223 34.042 16.9053 33.5216 17.4476C32.8165 18.2103 33.018 18.2781 34.4449 17.7696C35.3011 17.4815 35.3178 17.4815 35.15 17.8035C35.0492 17.973 34.5288 18.5662 33.9748 19.1085C33.0347 20.0407 32.9844 20.1424 32.9844 20.922C32.9844 22.1253 32.4136 24.6336 31.8428 26.0064C30.7852 28.5825 28.5189 31.2433 26.2526 32.5822C23.063 34.4635 18.8157 34.938 15.24 33.8364C14.0481 33.4635 12 32.5144 12 32.345C12 32.2941 12.6211 32.2263 13.3766 32.2094C14.9546 32.1755 16.5326 31.7348 17.8756 30.9552L18.7822 30.4129L17.7413 30.057C16.264 29.5485 14.9378 28.3791 14.6021 27.2775C14.5013 26.9216 14.5349 26.9046 15.475 26.9046L16.4487 26.8877L15.6261 26.4979C14.6524 26.0064 13.7627 25.1759 13.3262 24.3285C13.0072 23.7184 12.6044 22.1761 12.7219 22.0575C12.7554 22.0066 13.108 22.1083 13.5109 22.2439C14.6692 22.6676 14.8203 22.5659 14.1488 21.8541C12.8897 20.5661 12.5036 18.6509 13.108 16.8375L13.3934 16.024L14.5013 17.1256C16.7677 19.3458 19.4369 20.6677 22.4922 21.0576L23.3316 21.1592Z" fill="red"/>
</svg>
