<svg width="56" height="49" viewBox="0 0 56 49" fill="none" xmlns="http://www.w3.org/2000/svg">
<path d="M41.0104 29.5048C40.7449 28.935 40.5009 28.2715 40.1564 27.6657C35.2473 19.0905 30.3885 10.4793 25.3073 2.00505C24.69 0.973717 22.8815 0.180386 21.5896 0.129901C16.0131 -0.07925 10.4294 0.0217194 4.84578 0.0433557C0.0013356 0.0722041 -1.20439 2.09159 1.19989 6.27461C5.29075 13.4002 9.46056 20.4825 13.5945 27.5864C17.2475 33.8681 20.836 40.1859 24.5752 46.41C26.5704 49.7419 29.2474 49.879 31.2139 46.7057C34.4076 41.5418 37.3574 36.2337 40.4004 30.9761C40.6301 30.565 40.7664 30.0962 41.0104 29.5048ZM28.2498 0.598688C33.1517 9.1306 37.91 17.3957 42.7544 25.8266C45.3238 23.6414 45.618 21.8095 44.075 19.2997C40.7664 13.9339 37.6301 8.44545 34.6301 2.89935C33.2665 0.396749 31.6302 -0.62737 28.2498 0.598688ZM36.855 0.584263C40.343 6.62801 43.6731 12.3833 47.0678 18.2611C49.8166 16.148 49.9529 14.244 48.3596 11.8207C46.4721 8.9503 44.7496 5.94286 43.2138 2.8705C41.9363 0.310204 40.221 -0.605734 36.855 0.584263ZM45.1731 0.0577799C47.5845 4.20474 49.4792 7.48625 51.7328 11.3664C53.3189 8.65461 54.5749 6.79388 55.5294 4.78892C56.7351 2.25026 55.5581 0.281355 52.7519 0.0866283C50.5414 -0.0648258 48.3094 0.0577799 45.1731 0.0577799Z" fill="url(#paint0_linear)"/>
<defs>
<linearGradient id="paint0_linear" x1="56" y1="1.46031e-06" x2="7.43363" y2="55.5044" gradientUnits="userSpaceOnUse">
<stop stop-color="#00C4F9"/>
<stop offset="1" stop-color="#64D9FF"/>
<stop offset="1" stop-color="white"/>
</linearGradient>
</defs>
</svg>
