<svg data-v-423bf9ae="" xmlns="http://www.w3.org/2000/svg" viewBox="0 0 80.68808510170182 60" class="font"><!----><!----><!----><g data-v-423bf9ae="" id="600b91af-574d-4617-8571-06c46ebe3221" fill="white" transform="matrix(5.7675544261465514,0,0,5.7675544261465514,5.248472820055163,-8.25099508986581)"><path d="M7.45 1.90L7.45 1.90L7.45 1.90Q7.32 2.41 6.97 2.49L6.97 2.49L6.97 2.49Q6.06 2.72 3.81 3.08L3.81 3.08L3.81 3.08Q3.53 6.57 3.53 8.89L3.53 8.89L3.53 8.89Q3.53 9.77 3.56 10.63L3.56 10.63L3.56 10.63Q3.57 10.89 3.53 11.03L3.53 11.03L3.53 11.03Q3.46 11.26 3.25 11.24L3.25 11.24L3.25 11.24Q2.84 11.23 2.58 10.90L2.58 10.90L2.58 10.90Q2.31 10.57 2.28 10.16L2.28 10.16L2.28 10.16Q2.25 9.65 2.25 9.07L2.25 9.07L2.25 9.07Q2.25 8.15 2.38 6.15L2.38 6.15L2.38 6.15Q2.51 4.23 2.49 3.22L2.49 3.22L2.49 3.22Q2.11 3.19 1.44 3.29L1.44 3.29L1.44 3.29Q0.67 3.40 0.38 3.40L0.38 3.40L0.38 3.40Q-0.31 3.40-0.74 3.04L-0.74 3.04L-0.74 3.04Q-0.91 2.67-0.91 2.66L-0.91 2.66L-0.91 2.66Q-0.91 2.56-0.81 2.45L-0.81 2.45L-0.81 2.45Q-0.36 2.30 1.02 2.17L1.02 2.17L1.02 2.17Q2.24 2.04 2.84 1.72L2.84 1.72L2.84 1.72Q3.33 1.88 3.96 1.88L3.96 1.88L3.96 1.88Q4.59 1.88 5.17 1.72L5.17 1.72L5.17 1.72Q5.33 1.71 6.02 1.53L6.02 1.53L6.02 1.53Q6.52 1.40 6.86 1.44L6.86 1.44L6.86 1.44Q7.11 1.44 7.07 1.65L7.07 1.65L7.07 1.65Q7.45 1.65 7.45 1.90ZM7.17 3.54L7.17 3.54L7.17 3.54Q7.20 3.95 7.20 4.38L7.20 4.38L7.20 4.38Q7.20 5.33 7 7.25L7 7.25L7 7.25Q6.80 9.17 6.80 10.15L6.80 10.15L6.80 10.15Q6.80 10.51 6.82 10.86L6.82 10.86L6.82 10.86Q6.69 11.26 6.27 11.24L6.27 11.24L6.27 11.24Q5.67 11.21 5.61 10.72L5.61 10.72L5.61 10.72Q5.56 10.23 5.56 9.69L5.56 9.69L5.56 9.69Q5.56 8.74 5.79 6.85L5.79 6.85L5.79 6.85Q6.02 4.96 6.02 4.02L6.02 4.02L6.02 4.02Q6.02 3.65 5.99 3.30L5.99 3.30L5.99 3.30Q6.13 3.04 6.47 3.04L6.47 3.04L6.47 3.04Q6.73 3.04 7 3.19L7 3.19L7 3.19Q7.06 3.15 7.08 3.15L7.08 3.15L7.08 3.15Q7.13 3.15 7.13 3.29L7.13 3.29L7.13 3.29Q7.11 3.46 7.13 3.49L7.13 3.49L7.13 3.49Q7.14 3.53 7.17 3.54ZM12.99 9.95L12.99 9.95L12.99 9.95Q13.08 10.18 13.08 10.35L13.08 10.35L13.08 10.35Q13.08 10.63 12.84 10.84L12.84 10.84L12.84 10.84Q12.60 11.05 12.52 11.03L12.52 11.03L12.52 11.03Q11.83 10.91 11.65 9.93L11.65 9.93L11.65 9.93Q11.45 8.86 11.19 8.15L11.19 8.15L11.19 8.15Q10.71 8.19 10.23 8.23L10.23 8.23L10.23 8.23Q9.69 8.30 9.38 8.57L9.38 8.57L9.38 8.57Q9.23 9.00 8.97 10.11L8.97 10.11L8.97 10.11Q8.74 11.13 8.51 11.66L8.51 11.66L8.51 11.66Q8.40 11.91 8.04 11.80L8.04 11.80L8.04 11.80Q7.57 11.65 7.55 11.38L7.55 11.38L7.55 11.38Q7.50 10.85 7.85 9.95L7.85 9.95L7.85 9.95Q8.27 8.93 8.32 8.50L8.32 8.50L8.32 8.50Q8.33 8.37 8.13 8.22L8.13 8.22L8.13 8.22Q7.94 8.06 7.94 7.98L7.94 7.98L7.94 7.98Q7.94 7.91 8.00 7.83L8.00 7.83L8.00 7.83Q8.06 7.76 8.29 7.71L8.29 7.71L8.29 7.71Q8.53 7.66 8.55 7.56L8.55 7.56L8.55 7.56Q8.81 6.86 9.35 4.96L9.35 4.96L9.35 4.96Q9.81 3.30 10.18 2.42L10.18 2.42L10.18 2.42Q10.26 2.23 10.53 2.23L10.53 2.23L10.53 2.23Q10.72 2.23 10.88 2.35L10.88 2.35L10.88 2.35Q11.27 2.69 11.38 3.36L11.38 3.36L11.38 3.36Q11.47 3.93 11.54 4.51L11.54 4.51L11.54 4.51Q12.24 7.81 12.99 9.95ZM10.95 7.28L10.95 7.28L10.95 7.28Q10.91 6.76 10.77 6.12L10.77 6.12L10.77 6.12Q10.63 5.56 10.50 5.00L10.50 5.00L10.50 5.00Q10.08 6.16 9.77 7.32L9.77 7.32L9.77 7.32Q10.00 7.28 10.95 7.28Z"></path></g><!----><!----></svg>