<svg width="48" height="49" viewBox="0 0 48 49" fill="none" xmlns="http://www.w3.org/2000/svg">
<path fill-rule="evenodd" clip-rule="evenodd" d="M24 0.821289C10.7452 0.821289 0 11.5665 0 24.8213C0 38.0761 10.7452 48.8213 24 48.8213C37.2548 48.8213 48 38.0761 48 24.8213C48 11.5665 37.2548 0.821289 24 0.821289ZM34.0016 16.5706C35.1031 16.8729 35.9706 17.7635 36.265 18.8945C36.8 20.9443 36.8 25.2213 36.8 25.2213C36.8 25.2213 36.8 29.4981 36.265 31.5481C35.9706 32.6791 35.1031 33.5697 34.0016 33.8721C32.0054 34.4213 24 34.4213 24 34.4213C24 34.4213 15.9946 34.4213 13.9983 33.8721C12.8967 33.5697 12.0292 32.6791 11.7348 31.5481C11.2 29.4981 11.2 25.2213 11.2 25.2213C11.2 25.2213 11.2 20.9443 11.7348 18.8945C12.0292 17.7635 12.8967 16.8729 13.9983 16.5706C15.9946 16.0213 24 16.0213 24 16.0213C24 16.0213 32.0054 16.0213 34.0016 16.5706Z" fill="red"/>
<path d="M21.6 29.6211V21.6211L28 25.6212L21.6 29.6211Z" fill="red"/>
</svg>
